<svg width="300" height="158" viewBox="0 0 300 158" fill="none" xmlns="http://www.w3.org/2000/svg">
<g clip-path="url(#clip0_1_78)">
<mask id="mask0_1_78" style="mask-type:luminance" maskUnits="userSpaceOnUse" x="-275" y="-4918" width="4561" height="5922">
<path d="M-274.54 1003.62H4285.3V-4917.36H-274.54V1003.62Z" fill="white"/>
</mask>
<g mask="url(#mask0_1_78)">
<path d="M236.108 4.44871L214.708 91.5015L193.247 4.44871H131.262V36.5944C123.73 8.46408 96.0988 1.4088 71.4092 1.00802C41.3052 0.614799 7.94952 13.6591 6.79254 53.4651H48.4285C48.4285 41.4492 59.4311 34.5678 69.8211 34.7417C82.5781 34.6359 88.4462 40.0805 88.7411 48.5574C88.3025 55.9151 83.9619 61.0346 69.927 61.0346H55.9224V89.9211H68.6339C75.8556 89.9211 85.9054 93.8533 86.2986 104.137C86.7825 116.395 78.2602 121.779 67.7719 121.885C49.0485 121.19 44.2165 106.807 44.2165 94.4356H1.00012C1.18161 102.769 0.909378 157.086 68.6415 156.685C101.09 156.98 124.706 143.338 131.368 124.532V153.358H173.049V59.439L196.098 153.358H233.34L256.472 59.5448V153.441H299V4.44871H236.108ZM131.398 91.2974C126.089 80.3175 118.618 75.5156 114.414 73.9957C123.239 70.071 127.859 64.7475 131.398 54.1381V91.2974Z" fill="#FF0000"/>
</g>
</g>
<defs>
<clipPath id="clip0_1_78">
<rect width="300" height="157.69" fill="white"/>
</clipPath>
</defs>
</svg>
