<svg width="601" height="98" viewBox="0 0 601 98" fill="none" xmlns="http://www.w3.org/2000/svg">
<path d="M25.1 79.4999L45.6 25.8999L66.4 79.4999H25.1ZM54.5 2.3999H37.1L0.800011 95.1999L0.600006 95.7999H91L54.7 2.69991L54.5 2.3999ZM142.3 70.7999L116 2.3999H97.8L132.2 95.4999L132.3 95.7999H151.9L186.6 2.3999H168.6L142.3 70.7999ZM216 79.4999L236.5 25.8999L257.3 79.4999H216ZM245.5 2.3999H228.1L191.8 95.1999L191.6 95.7999H282L245.7 2.69991L245.5 2.3999ZM370.6 65.7999L323.3 2.59991L323.2 2.3999H308.4V95.7999H325.7V32.3999L373 95.5999L373.1 95.7999H387.9V2.3999H370.6V65.7999ZM465.1 81.4999C448 81.4999 434.1 66.7999 434.1 48.6999C434.1 31.0999 448.1 16.8999 465.4 16.8999C482.7 16.8999 496.7 31.3999 496.7 49.2999C496.7 66.9999 482.5 81.4999 465.1 81.4999ZM465.4 0.399902C438.9 0.399902 416.6 22.3999 416.6 48.3999C416.6 75.6999 438.3 97.8999 465 97.8999C492.2 97.8999 514.3 76.0999 514.3 49.1999C514.2 22.2999 492.3 0.399902 465.4 0.399902ZM572.8 39.4999C564.3 36.0999 556.9 33.1999 556.9 26.9999C556.9 19.9999 564.2 16.7999 571.4 16.7999C577.1 16.7999 583.3 19.0999 587.4 22.6999L587.8 23.0999L597.4 9.3999L597 9.09991C588.9 3.09991 580.2 0.399902 569.8 0.399902C554.6 0.399902 538.5 9.79992 538.5 27.0999C538.5 36.2999 542.9 43.3999 551.9 48.6999C555.8 50.9999 560.2 52.6999 564.4 54.3999C573.5 57.9999 582.1 61.3999 582.1 69.6999C582.1 76.4999 576.3 81.4999 568.4 81.4999C560.5 81.4999 552.3 77.6999 546.4 71.3999L546.1 70.9999L534.1 83.5999L534.5 83.8999C544.6 92.9999 556.3 97.8999 568.5 97.8999C586.5 97.8999 600.6 85.3999 600.6 69.3999C600.6 50.4999 585.2 44.3999 572.8 39.4999Z" fill="#3D3A36"/>
</svg>
