<svg width="1000" height="1000" viewBox="0 0 1000 1000" fill="none" xmlns="http://www.w3.org/2000/svg">
<g clip-path="url(#clip0_1_99)">
<path d="M998.684 468.421C982.895 207.895 765.789 0 500 0C234.21 0 17.1053 207.895 1.3158 468.421C1.3158 478.947 2.63159 489.474 3.94738 500C14.4737 586.842 47.3684 667.105 97.3684 734.211C188.158 857.895 334.211 938.158 500 938.158C268.421 938.158 78.9474 757.895 63.1579 531.579C61.8421 521.053 61.8421 510.526 61.8421 500C61.8421 489.474 61.8421 478.947 63.1579 468.421C78.9474 242.105 268.421 61.8421 500 61.8421C665.789 61.8421 811.842 142.105 902.632 265.789C952.632 332.895 985.526 413.158 996.053 500C997.368 510.526 998.684 521.053 998.684 530.263C998.684 519.737 1000 509.211 1000 498.684C1000 489.474 1000 478.947 998.684 468.421Z" fill="#89D329"/>
<path d="M1.31579 531.579C17.1053 792.105 234.211 1000 500 1000C765.789 1000 982.895 792.105 998.684 531.579C998.684 521.053 997.368 510.526 996.053 500C985.526 413.158 952.632 332.895 902.632 265.789C811.842 142.105 665.789 61.842 500 61.842C731.579 61.842 921.053 242.105 936.842 468.421C938.158 478.947 938.158 489.474 938.158 500C938.158 510.526 938.158 521.053 936.842 531.579C921.053 759.21 731.579 938.158 500 938.158C334.211 938.158 188.158 857.895 97.3684 734.211C47.3684 667.105 14.4737 586.842 3.94737 500C2.63158 489.474 1.31579 478.947 1.31579 469.737C1.31579 480.263 0 490.789 0 501.316C0 510.526 9.41126e-08 521.053 1.31579 531.579Z" fill="#00BCFF"/>
<path d="M438.158 96.0527V234.211H534.211C557.895 234.211 576.316 215.79 576.316 192.105C576.316 180.263 571.053 169.737 563.158 161.842C568.421 155.263 572.368 146.052 573.684 136.842C573.684 114.473 555.263 96.0527 532.895 96.0527H438.158ZM469.736 125H527.631C534.21 125 539.475 130.263 539.475 136.842C539.475 143.421 534.21 148.684 527.631 148.684H469.736V125ZM469.736 177.631H528.947C536.842 177.631 542.105 182.894 542.105 190.789C542.105 198.684 536.842 203.947 528.947 203.947H469.736V177.631Z" fill="#10384F"/>
<path d="M484.211 260.525L415.789 398.684H451.316L461.842 375H539.475L550 398.684H585.525L515.789 260.525H484.211ZM500 296.053L523.684 346.053H476.316L500 296.053Z" fill="#10384F"/>
<path d="M547.368 428.947H586.842L517.105 518.421V567.105H484.211V518.421L414.474 428.947H453.947L501.316 492.105L547.368 428.947Z" fill="#10384F"/>
<path d="M773.684 428.947V567.105H806.578V514.475H831.578L871.053 567.105H910.525L869.736 513.158C886.842 507.895 900 492.106 900 472.369C900 448.685 881.579 428.947 857.895 428.947H773.684ZM807.895 457.895H855.264C861.843 457.895 868.422 464.474 868.422 471.053C868.422 477.632 863.158 484.211 855.264 484.211H807.895V457.895Z" fill="#10384F"/>
<path d="M101.316 428.947V567.105H197.369C221.053 567.105 239.474 548.684 239.474 525C239.474 513.158 234.211 502.631 226.316 494.736C231.579 488.157 235.525 478.947 236.841 469.736C236.841 447.368 218.421 428.947 196.052 428.947H101.316ZM132.894 457.894H190.788C197.367 457.894 202.632 463.157 202.632 469.736C202.632 476.315 197.367 481.578 190.788 481.578H132.894V457.894ZM132.894 510.525H192.105C200 510.525 205.263 515.789 205.263 523.683C205.263 531.578 200 536.842 192.105 536.842H132.894V510.525Z" fill="#10384F"/>
<path d="M327.633 428.947L259.211 567.106H294.738L305.264 543.422H382.896L393.422 567.106H428.947L359.211 428.947H327.633ZM343.422 464.475L367.105 514.475H319.738L343.422 464.475Z" fill="#10384F"/>
<path d="M730.263 428.947V458.645H638.158V481.886H727.632V511.584H638.158V537.408H730.263V567.106H605.263V428.947H730.263Z" fill="#10384F"/>
<path d="M436.842 768.422V906.58H469.736V853.949H494.736L534.211 906.58H573.684L532.895 852.633C550 847.37 563.158 831.581 563.158 811.844C563.158 788.16 544.737 768.422 521.053 768.422H436.842ZM471.053 797.369H518.422C525.001 797.369 531.58 803.948 531.58 810.527C531.58 817.106 526.317 823.686 518.422 823.686H471.053V797.369Z" fill="#10384F"/>
<path d="M563.158 597.061V626.758H471.053V650H560.526V679.697H471.053V705.521H563.158V735.219H438.158V597.061H563.158Z" fill="#10384F"/>
</g>
<defs>
<clipPath id="clip0_1_99">
<rect width="1000" height="1000" fill="white"/>
</clipPath>
</defs>
</svg>
