<svg fill="none" height="60" viewBox="0 0 60 60" width="60" xmlns="http://www.w3.org/2000/svg"><g fill="#69b445"><rect fill-opacity=".2" height="60" rx="20" width="60"/><path d="m31.0002 21.29c-4.7175 0-8.5549 3.9088-8.5549 8.7142 0 4.8053 3.8378 8.7137 8.5549 8.7137s8.5549-3.9084 8.5549-8.7137c0-4.8054-3.8378-8.7142-8.5549-8.7142zm4.6046 9.3093-5.1892-.0008.0003-7.6064h1.1689l-.0004 6.4162 4.0204.0004z"/><path d="m45.9888 29.4908c-.0023-.0554-.0068-.1127-.0091-.1688-.0067-.1211-.0142-.243-.0236-.3679-.0052-.0672-.012-.1352-.018-.2036-.0112-.1188-.0236-.2391-.0375-.3613-.0079-.0718-.0168-.144-.0258-.217-.0068-.0496-.0139-.1012-.021-.1516l-4.6489-1.3954.0003-.0004h-.0003l2.9625-3.9187c-.6312-1.1811-1.395-2.256-2.2755-3.2041l-4.5844 1.6613.1335-4.9448c-1.1696-.5672-2.4112-.9763-3.6994-1.2185l-2.7416 4.0738-2.7345-4.0654c-.1763.0329-.3521.0672-.5269.107-.1128.0252-.2269.0473-.339.0752-.348.0871-.6926.1834-1.032.2953-.0131.0046-.0262.0099-.0394.0145-.3277.1089-.6506.2307-.9693.3629-.1103.0454-.2179.0966-.3267.1447-.159.0707-.3161.1452-.4725.2212l.1335 4.9333h-.0003v.0004l-4.3313-1.57-.2422-.0878c-.1148.1234-.228.2475-.3386.3751-.0825.0947-.1673.1872-.2472.2846-.2062.2498-.4046.5076-.5951.7723-.03.0417-.0611.0825-.0908.1249-.1968.2793-.3843.5669-.5636.861-.0652.1074-.1252.2185-.1882.3278-.0878.152-.1721.3071-.2554.4625l2.9554 3.9111-.0004.0004-4.6496 1.3958c-.0068.0493-.0143.0997-.0203.1486-.0093.076-.0184.1512-.027.2253-.0139.1196-.0255.2376-.036.3537-.0067.0703-.0131.141-.0187.2094-.0098.123-.0165.2433-.0233.3632-.003.0573-.0071.1154-.0094.1719-.0071.1738-.0112.345-.0112.5119s.0041.3373.0112.5111c.0023.0557.0068.1138.0094.1703.0064.12.0135.2411.0233.3644.0056.0684.012.1379.0184.2078.0108.1162.0225.2338.036.3541.0086.0753.0176.1505.0273.2266.006.0481.0135.0985.0203.1474l4.6488 1.3958-2.9549 3.9103c.0873.1646.1758.327.2684.4866.057.0994.1118.2006.1711.2984.1904.3124.3884.6184.5984.9148.0042.0057.0083.0099.0124.0157.2067.2907.4241.5703.6491.843.0713.0871.1474.1688.2202.2536.1173.1356.2381.2674.36.3984l4.5731-1.6574h.0007l-.1335 4.9337c.1688.0814.3372.1623.5085.2372.0934.0409.1853.0856.2794.1249.6671.2758 1.3541.5019 2.0569.6773.1072.0271.2156.0481.3236.0718.1774.0401.3563.0752.5355.1085l2.2159-3.2935.5205-.7727 1.1674 1.7357 1.5682 2.3316c.1759-.0325.351-.0668.5247-.1062.1128-.0252.2268-.047.3397-.0749.3491-.0874.6952-.1845 1.0365-.2968.0011-.0007.0023-.0007.003-.0015.3401-.1119.6746-.2387 1.0058-.3759.1038-.0424.2054-.0912.3086-.1371.1639-.0718.3255-.1497.4864-.228l-.1328-4.9329 4.5735 1.6574c.1192-.1287.2381-.2582.3525-.3912.0757-.0874.1541-.1722.228-.2624.2224-.2697.4373-.5474.642-.835.006-.0076.0124-.0145.018-.0233.21-.2945.4076-.6005.5977-.9133.0612-.1001.1171-.2036.1759-.3052.0919-.1582.1797-.3186.2659-.4809l-2.9565-3.9111 4.6489-1.3958c.0067-.0489.0139-.0993.0202-.1482.0098-.0745.0188-.149.027-.2227.0135-.1207.0255-.2387.0368-.3556.0064-.0699.0131-.1387.0184-.207.0093-.1242.0168-.2453.0236-.366.003-.0557.0075-.113.0094-.1688.0075-.1742.0112-.3457.0112-.5134s-.0041-.3392-.0112-.5134zm-14.9888 10.4178c-5.3617 0-9.7238-4.4428-9.7238-9.9044s4.3621-9.9051 9.7238-9.9051 9.7241 4.4435 9.7241 9.9051c0 5.4619-4.3624 9.9044-9.7241 9.9044z"/><circle cx="32" cy="27" r="5"/></g></svg>