<svg fill="none" height="60" viewBox="0 0 60 60" width="60" xmlns="http://www.w3.org/2000/svg"><rect fill="#fcedee" height="60" rx="20" width="60"/><path d="m34.2444 34.161-8.3147 2.4579c.4136.7992 1.0523 1.4475 1.8192 1.8746v4.4393h-1.4163c-.5601 0-1.0114.4634-1.0114 1.0336s.4524 1.0336 1.0114 1.0336h8.3459c.56 0 1.0113-.4634 1.0113-1.0336s-.4524-1.0336-1.0113-1.0336h-1.4163v-5.5874c0 .0011 1.0576-1.0534.9822-3.1844zm-3.006 8.7718h-1.4658l-.0129-3.8768c.6903-.0176 1.4787-.2697 1.4787-.2697zm-12.6131-16.4352 3.187-1.6566 3.8363 9.7096-3.5154 1.0391s-1.0232.3952-1.4184-1.1216l-1.6996.6847s-.8325.3632-1.3129-.5834l-1.6317-4.2379c-.2046-.5306.0506-1.1305.5698-1.3407l1.6963-.6847c.0011-.0011-.6699-1.3099.2886-1.8085zm14.2879-9.1736 3.9602-2.1839c.9231-.5085 1.4206.5306 1.4206.5306l5.424 14.0554c.3102 1.1789-.6872 1.3792-.6872 1.3792l-4.3566 1.1591c-1.0425.2774-1.4012-1.1514-1.4012-1.1514l-9.6706 2.8598-3.9786-10.0729 9.0503-4.7068c0-.0011-.7485-1.3242.2391-1.8691z" fill="#b85a60"/></svg>