<svg fill="none" height="60" viewBox="0 0 60 60" width="60" xmlns="http://www.w3.org/2000/svg"><g fill="#105ea7"><rect fill-opacity=".16" height="60" rx="20" width="60"/><path d="m23.7488 23.7957c1.1471 0 2.0769-.9262 2.0769-2.0688 0-1.1425-.9298-2.0687-2.0769-2.0687s-2.0769.9262-2.0769 2.0687c0 1.1426.9298 2.0688 2.0769 2.0688z"/><path d="m36.7309 26.3818c-1.2389.0015-2.4266.4924-3.3027 1.365-.876.8726-1.3688 2.0556-1.3704 3.2897v7.4991c0 1.0287-.4102 2.0153-1.1406 2.7428-.7303.7274-1.7208 1.1361-2.7536 1.1361s-2.0233-.4087-2.7536-1.1361c-.7303-.7275-1.1406-1.7141-1.1406-2.7428v-2.4995l2.5961-.8622v-1.0343h-6.2307v1.0343l2.5961.8622v2.4995c0 1.3031.5197 2.5528 1.4448 3.4742.925.9214 2.1797 1.439 3.4879 1.439s2.5629-.5176 3.488-1.439c.925-.9214 1.4447-2.1711 1.4447-3.4742v-7.4991c0-.9602.3829-1.881 1.0646-2.5599.6816-.679 1.6061-1.0604 2.57-1.0604.964 0 1.8885.3814 2.5701 1.0604.6816.6789 1.0645 1.5997 1.0645 2.5599v3.6668c.3434-.0621.6951-.0621 1.0385 0v-3.6668c-.0015-1.2341-.4943-2.4171-1.3704-3.2897-.876-.8726-2.0638-1.3635-3.3027-1.365z"/><path d="m41.4043 34.7031v3.5737h2.5962v-.5171c-.0008-.7328-.2619-1.4417-.737-2.0011-.4752-.5595-1.1338-.9333-1.8592-1.0555z"/><path d="m37.7695 41.8965c0 .8229.3283 1.6122.9125 2.1942.5843.5819 1.3767.9088 2.2029.9088.8263 0 1.6187-.3269 2.2029-.9088.5843-.582.9125-1.3713.9125-2.1942v-2.586h-6.2308z"/><path d="m37.7695 37.7597v.5171h2.5962v-3.5737c-.7254.1222-1.384.496-1.8592 1.0555-.4751.5594-.7362 1.2683-.737 2.0011z"/><path d="m26.8655 32.0703h-6.2307v1.0344h6.2307z"/><path d="m20.6346 30.0017v1.0344h2.5962v-6.2527c-.7703-.1297-1.4635-.5429-1.9423-1.1576-.4788-.6148-.7083-1.3863-.643-2.1616.0654-.7753.4207-1.498.9957-2.0246.575-.5267 1.3276-.819 2.1088-.819s1.5338.2923 2.1088.819c.575.5266.9303 1.2493.9957 2.0246.0653.7753-.1642 1.5468-.643 2.1616-.4788.6147-1.172 1.0279-1.9423 1.1576v6.2527h2.5962v-1.6089c-.0069-.4719.0916-.9394.2882-1.3687.1967-.4293.4866-.8097.8489-1.1138 1.0832-.8753 1.8676-2.0632 2.2453-3.4006s.3302-2.7584-.136-4.0678c-.4661-1.3094-1.3281-2.4428-2.4673-3.2444-1.1392-.8015-2.4997-1.2319-3.8945-1.2319s-2.7553.4304-3.8945 1.2319c-1.1392.8016-2.0012 1.935-2.4673 3.2444-.4662 1.3094-.5137 2.7304-.136 4.0678s1.1621 2.5253 2.2453 3.4006c.3623.3041.6522.6845.8489 1.1138.1966.4293.2951.8968.2882 1.3687z"/></g></svg>