<svg fill="none" height="60" viewBox="0 0 60 60" width="60" xmlns="http://www.w3.org/2000/svg"><rect fill="#ffeea6" height="60" rx="20" width="60"/><path d="m30.4834 22c-.2035.0002-.4412.1481-.5311.3306l-1.1665 2.3684-13.4304-.0573c-.4717-.0079-.4745.7026-.0027.6981l13.0902.056-1.8919 3.8416h-11.1867c-.4721-.0066-.4721.7047 0 .6981h10.8424l-1.8905 3.8395h-8.9622c-.472-.0066-.472.7048 0 .6981h8.618l-1.2579 2.5545c-.0898.1825.0022.3304.2053.3307h14.9936c.2035-.0002.4412-.1482.5311-.3307l7.2381-14.697c.0898-.1824-.0022-.3303-.2053-.3306z" fill="#b89500"/></svg>