<svg fill="none" height="20" viewBox="0 0 20 20" width="20" xmlns="http://www.w3.org/2000/svg" xmlns:xlink="http://www.w3.org/1999/xlink"><clipPath id="a"><path d="m0 0h20v20h-20z"/></clipPath><g clip-path="url(#a)"><path d="m13.4836 18.3332h-6.97408c-3.03167 0-4.84253-1.8134-4.84253-4.85v-6.97502c0-3.03166 1.81003-4.84166 4.84253-4.84166h6.98328c.6488-.03314 1.2978.06343 1.9089.28407.6112.22063 1.1722.56091 1.6502 1.00092.4381.47827.7765 1.03908.9953 1.64963.2188.61054.3135 1.25859.2789 1.90623v6.98333c-.0008 3.0325-1.8108 4.8425-4.8425 4.8425zm-1.4075-9.02503c.6284 0 1.2616.48667 1.2616 1.57333v3.6234h2.1517v-4.3709c.0393-.35144.0026-.70727-.1074-1.04337s-.2909-.64464-.5304-.90484c-.2395-.26021-.5321-.46599-.8579-.60344-.3259-.13745-.6774-.20338-1.0309-.19333-.4384-.01874-.8739.07672-1.2643.277-.3903.20028-.7219.49849-.9623.86548v-.92997h-2.14253v6.90247h2.14333v-3.6233c-.0215-.1923-.0033-.387.0533-.5721.0567-.1851.1506-.35656.2761-.50391.1255-.14734.2798-.26744.4535-.35283s.3629-.1343.5562-.14369zm-6.93987-1.70583v6.90256h2.15739v-6.90256zm1.0791-3.01916c-.28475.00155-.55728.11592-.75785.31805s-.31276.47554-.31209.76029c-.00067.28476.11152.55817.31209.7603s.4731.3165.75785.31804c.28468-.00154.55701-.11594.75745-.31809.20043-.20216.31257-.47557.31168-.76025.00089-.28467-.11125-.55808-.31168-.76024-.20044-.20216-.47277-.31655-.75745-.3181z" fill="#22a1d9"/></g></svg>