<svg width="481" height="72" viewBox="0 0 481 72" fill="none" xmlns="http://www.w3.org/2000/svg">
<path d="M86.26 0.0100098H6.50999C3.21999 0.0700098 0.569995 2.72001 0.509995 6.01001V65.89C0.569995 69.18 3.21999 71.83 6.50999 71.89H86.26C89.55 71.83 92.2 69.18 92.26 65.89V6.07002C92.2 2.78002 89.55 0.130023 86.26 0.0700226M75.74 58.15C74.81 58.63 73.78 58.89 72.74 58.9C70.76 58.93 68.93 57.87 67.96 56.14C66.03 58.83 62.28 59.45 59.59 57.52C59.53 57.48 59.47 57.43 59.41 57.39L57.9 55.88C56.1 58.57 52.49 59.35 49.74 57.64C48.51 56.92 47.61 55.74 47.23 54.37L46.72 55.37C45.05 58.09 41.59 59.07 38.74 57.64C37.51 56.92 36.61 55.74 36.23 54.37L35.72 55.37C34.05 58.12 30.53 59.11 27.67 57.63C26.5 56.85 25.61 55.7 25.16 54.36L24.4 55.36C22.73 58.11 19.21 59.1 16.35 57.62C13.6 55.94 12.62 52.43 14.09 49.57L33.21 16.12C34.75 13.29 38.3 12.24 41.13 13.78C41.17 13.8 41.22 13.83 41.26 13.85C42.5 14.62 43.47 15.77 44.03 17.12L44.53 16.12C46.07 13.29 49.62 12.24 52.45 13.78C52.49 13.8 52.54 13.83 52.58 13.85C53.82 14.62 54.79 15.77 55.35 17.12L55.85 16.37C57.44 13.56 60.94 12.46 63.85 13.85C65.09 14.62 66.06 15.77 66.62 17.12L67.12 16.12C67.8 14.96 68.86 14.07 70.12 13.6H70.37L71.12 13.35H73.39L74.14 13.6H74.4C74.78 13.66 75.12 13.84 75.4 14.1C77.19 15.14 78.32 17.03 78.4 19.1V53.1C78.31 55.11 77.28 56.96 75.63 58.1" fill="#9C1D22"/>
<path d="M267.14 11.6101H229.65C228.05 11.5901 226.5 12.2201 225.38 13.3701L224.87 13.8701C224.37 14.1201 224.37 14.3801 224.12 14.6301C223.55 15.6401 223.21 16.7501 223.12 17.9001V46.8301H217.12L212.6 39.2801C226.18 31.4801 219.89 11.3601 205.3 11.3601H188.14C187.37 11.4101 186.6 11.5801 185.88 11.8601C185.63 11.8601 185.38 12.1101 185.12 12.3601C184.57 12.6001 184.06 12.9401 183.62 13.3601L183.11 14.1101C182.15 15.2201 181.61 16.6401 181.6 18.1101V47.2901H159.97V41.7601H171.54C175.15 41.6201 177.97 38.5701 177.83 34.9601C177.7 31.5401 174.96 28.8001 171.54 28.6701H160.22V24.4001H173.05C176.66 24.4001 179.59 21.4701 179.59 17.8601C179.59 14.2501 176.66 11.3201 173.05 11.3201H152.67C150.38 11.3701 148.28 12.6101 147.14 14.5901L139.34 28.6701V17.9001C139.51 14.4601 136.87 11.5401 133.43 11.3601C133.4 11.3601 133.37 11.3601 133.34 11.3601H133.09C130.52 11.3801 128.11 12.5901 126.55 14.6301L106.64 50.3501C104.83 53.4201 105.85 57.3601 108.92 59.1701C111.99 60.9801 115.93 59.9601 117.74 56.8901L126.3 41.5401V54.1201C126.36 57.7101 129.25 60.6001 132.84 60.6601C134.2 60.6701 135.53 60.2301 136.61 59.4101L136.86 59.1501C137.43 58.6201 137.94 58.0301 138.37 57.3901L146.93 41.8001V54.1201C146.9 57.7001 149.79 60.6301 153.37 60.6601C153.4 60.6601 153.44 60.6601 153.47 60.6601H188.47C192.06 60.6001 194.96 57.7101 195.02 54.1201V24.6901H205.33C208.1 24.6901 208.6 29.2201 205.58 29.2201H202.58C199.19 29.3201 196.52 32.1201 196.58 35.5101C196.56 36.6801 196.91 37.8201 197.58 38.7801L207.14 56.3901C208.4 58.1501 208.9 60.6601 214.14 60.9201C219.38 61.1801 229.74 60.9201 229.74 60.9201C233.28 60.9701 236.19 58.1601 236.28 54.6301V24.1901H245.74V53.8701C245.65 57.4201 248.46 60.3701 252.01 60.4601C255.39 60.5401 258.26 58.0001 258.57 54.6301V24.4401H267.13C270.72 24.3801 273.61 21.4901 273.67 17.9001C273.67 14.4301 270.86 11.6101 267.38 11.6101C267.29 11.6101 267.21 11.6101 267.13 11.6101" fill="#9C1D22"/>
<path d="M478.74 48.34C477.33 46.94 475.44 46.13 473.46 46.07H460.84V24.69C461.06 21.15 459.78 17.68 457.32 15.13C454.67 12.66 451.12 11.39 447.51 11.61C442.6 11.65 438.08 14.32 435.69 18.61L423.11 41.5C421.87 43.73 419.78 45.36 417.32 46.03C414.69 46.73 411.89 46.37 409.52 45.03C404.66 42.25 402.97 36.06 405.75 31.2C408.53 26.34 414.72 24.65 419.58 27.42C422.76 29.97 427.4 29.47 429.96 26.29C432.51 23.11 432.01 18.47 428.83 15.91C428.69 15.8 428.54 15.69 428.4 15.59L426.89 14.84C415.1 8.01999 400.01 12.05 393.18 23.84C392.73 24.79 392.23 25.72 391.67 26.61V18.81C391.52 14.78 388.13 11.64 384.1 11.79C380.28 11.93 377.22 15 377.08 18.81V25.86C373.31 16.3 364 11.27 349.66 11.27H342.66C338.86 11.24 335.72 14.26 335.61 18.06V46.23H316.45V42.46H325.51C329.42 42.57 332.69 39.49 332.8 35.57C332.8 35.53 332.8 35.49 332.8 35.46C332.83 33.51 332.12 31.61 330.8 30.17C329.39 28.78 327.5 27.97 325.52 27.91H316.45V25.91H327.02C329.02 25.91 330.93 25.09 332.3 23.64C333.7 22.23 334.51 20.34 334.57 18.36C334.55 16.57 333.83 14.85 332.57 13.58C331.1 12.12 329.11 11.31 327.04 11.32H308.9C306.16 11.15 303.54 12.5 302.1 14.84L295.56 25.91V18.36C295.55 14.33 292.3 11.07 288.27 11.06C285.63 11.05 283.21 12.51 281.98 14.84L262.86 50.06C260.77 53.53 261.9 58.03 265.37 60.12C267.04 61.1 269.04 61.38 270.91 60.88C272.85 60.39 274.49 59.11 275.44 57.35L281.44 46.03V53.83C281.44 57.86 284.71 61.13 288.74 61.13C291.44 61.13 293.93 59.69 295.28 57.35L301.82 45.53V53.33C301.94 57.4 305.29 60.64 309.37 60.62H343.08C345.08 60.63 346.99 59.81 348.36 58.36C349.35 57.4 350.05 56.18 350.36 54.84C351.17 58.8 354.93 61.43 358.92 60.84C367.18 59.54 374.15 54 377.28 46.24V53.54C377.24 55.46 378.07 57.3 379.55 58.54C382.33 61.31 386.83 61.31 389.61 58.54C390.86 57.04 391.65 55.2 391.87 53.26V45.21C393.95 50.3 397.67 54.55 402.44 57.28C410.74 62.06 423.32 62.28 431.37 53.76H446.21C446.93 57.36 449.87 60.09 453.51 60.55H473.63C477.66 60.55 480.92 57.29 480.93 53.26C481.18 51.5 480.17 49.74 478.66 48.26M350.66 51.78V25.44C358.96 25.44 363.23 28.21 364.49 34.25C364.94 37.06 364.31 39.93 362.73 42.3C361.26 44.43 358.99 45.87 356.44 46.3C353.66 46.98 351.46 49.09 350.66 51.84M373.3 49.32C370.04 54.58 364.59 58.09 358.45 58.88C355.57 59.14 353.03 57.02 352.77 54.14C352.54 51.56 354.22 49.2 356.74 48.59C359.81 47.97 362.52 46.18 364.29 43.59C366.33 40.76 367.06 37.19 366.29 33.78C364.78 26.48 359.29 22.96 349.44 23.21H348.44V53.4C348.42 56.31 346.07 58.66 343.16 58.68H309.4C306.48 58.59 304.09 56.32 303.86 53.4V37.8L293.55 56.67C292.54 58.19 290.85 59.13 289.02 59.18C286.11 59.16 283.76 56.81 283.74 53.9V37.52L273.68 56.39C272.97 57.63 271.79 58.53 270.41 58.9C269.06 59.22 267.64 59.05 266.41 58.4C263.99 56.97 263.12 53.89 264.41 51.4L283.53 16.18C284.83 13.7 287.89 12.74 290.37 14.04C292.09 14.94 293.15 16.75 293.09 18.69V34.01L303.4 16.15C304.32 14.4 306.22 13.4 308.18 13.63H326.29C327.9 13.61 329.44 14.24 330.57 15.39C331.56 16.18 332.12 17.39 332.08 18.66C332.06 21.57 329.71 23.92 326.8 23.94H314.18V30.23H325.25C328.19 30.52 330.39 33.07 330.25 36.02C330.05 38.7 327.93 40.82 325.25 41.02H314.18V49.02H337.32V18.65C337.23 15.98 339.31 13.75 341.98 13.65C342.02 13.65 342.06 13.65 342.1 13.65H349.65C365.5 13.65 374.55 19.94 376.57 32.27C377.67 38.18 376.5 44.28 373.3 49.37M389.65 53.9C389.58 56.68 387.42 58.96 384.65 59.18C381.8 59.25 379.43 57 379.36 54.15C379.36 54.07 379.36 53.98 379.36 53.9V18.9C379.37 17.5 379.91 16.15 380.87 15.13C381.87 14.13 383.24 13.58 384.65 13.62C387.56 13.64 389.91 15.99 389.93 18.9L389.65 53.9ZM473.65 58.9H453.55C450.55 58.65 448.55 56.14 448.26 53.12V52.12H430.4L430.15 52.37C422.86 60.37 411.03 60.17 403.48 55.64C392.64 49.39 388.93 35.53 395.18 24.7C401.43 13.86 415.29 10.15 426.13 16.4C428.63 17.76 429.63 20.84 428.39 23.4C427.19 25.89 424.2 26.93 421.71 25.73C421.67 25.71 421.63 25.69 421.6 25.67C421.35 25.67 421.35 25.41 421.09 25.41C415.42 21.98 408.04 23.81 404.61 29.48C404.57 29.55 404.53 29.62 404.49 29.69C401.22 35.48 402.98 43.02 408.77 46.29H409.02C411.87 48.09 415.36 48.55 418.58 47.55C421.58 46.77 424.12 44.76 425.58 42.02L438.16 19.13C440.07 15.47 443.84 13.16 447.97 13.13C451.03 12.96 454.02 14.05 456.27 16.13C458.28 18.3 459.29 21.23 459.04 24.18V48.08H473.88C476.86 48.36 479.05 51 478.77 53.98C478.52 56.67 476.33 58.76 473.63 58.89" fill="#9C1D22"/>
<path d="M447.26 25.7C446.81 25.48 446.26 25.66 446.04 26.11C446.03 26.14 446.01 26.17 446 26.2L438.74 40.01C438.49 40.3 438.49 40.72 438.74 41.01C438.98 41.31 439.35 41.5 439.74 41.51H447.04C447.52 41.58 447.97 41.25 448.04 40.77C448.05 40.68 448.05 40.6 448.04 40.51V26.7C448.04 26.2 447.79 25.7 447.29 25.7M446.03 39.53H441.5L446.03 30.98V39.53Z" fill="#9C1D22"/>
<path d="M18.84 56.39C16.83 56.45 15.14 54.87 15.07 52.86C15.12 52.17 15.29 51.49 15.57 50.86L35.19 17.15C36.31 15.43 38.61 14.94 40.34 16.06C40.39 16.09 40.43 16.12 40.47 16.15C42.09 17.15 42.65 19.24 41.74 20.92L22.11 54.63C21.61 55.88 20.35 56.39 18.84 56.39Z" fill="#9C1D22"/>
<path d="M41.74 56.3901C41.12 56.3801 40.51 56.2001 39.98 55.8801C38.26 54.8401 37.7 52.6101 38.72 50.8801L58.34 17.1701C59.35 15.4101 61.59 14.8001 63.35 15.8101C65.11 16.8201 65.72 19.0601 64.71 20.8201C64.68 20.8601 64.66 20.9101 64.63 20.9501L45 54.6301C44.39 55.8401 43.09 56.5501 41.74 56.3901Z" fill="#9C1D22"/>
<path d="M66.64 39.28L59.59 50.85C58.62 52.66 59.29 54.91 61.1 55.88C62.91 56.85 65.16 56.18 66.13 54.37C66.42 53.82 66.59 53.23 66.64 52.61V39.28Z" fill="#9C1D22"/>
<path d="M473.17 15.88C473.25 18.45 471.22 20.6 468.65 20.68C466.08 20.76 463.93 18.73 463.85 16.16C463.77 13.59 465.8 11.44 468.37 11.36C468.38 11.36 468.38 11.36 468.39 11.36H468.64C471.13 11.34 473.15 13.34 473.17 15.83C473.17 15.85 473.17 15.86 473.17 15.88ZM465.12 15.63C465.04 17.5 466.49 19.08 468.36 19.16C468.37 19.16 468.38 19.16 468.39 19.16H468.64C470.54 19.2 472.12 17.7 472.16 15.8C472.16 15.74 472.16 15.69 472.16 15.63C472.12 13.7 470.57 12.15 468.64 12.11C467.01 12.08 465.61 13.26 465.37 14.88C465.24 15.11 465.15 15.37 465.12 15.63ZM467.89 18.15H466.89V13.62C467.39 13.62 468.15 13.37 468.65 13.37C469.17 13.33 469.68 13.42 470.16 13.62C470.47 13.86 470.65 14.23 470.66 14.62C470.62 15.16 470.2 15.58 469.66 15.62C470.16 15.87 470.41 16.13 470.41 16.62C470.41 17.11 470.66 17.37 470.66 17.62H469.66C469.46 17.33 469.38 16.97 469.41 16.62C469.41 16.12 468.9 15.86 468.41 15.86H467.91V18.13L467.89 18.15ZM467.89 15.63H468.39C468.89 15.63 469.39 15.38 469.39 14.88C469.39 14.38 469.14 14.12 468.39 14.12H467.89V15.63Z" fill="#9C1D22"/>
</svg>
