<svg width="60" height="60" viewBox="0 0 60 60" fill="none" xmlns="http://www.w3.org/2000/svg">
<rect width="60" height="60" rx="20" fill="#FFDCBF"/>
<g clip-path="url(#clip0_239_34)">
<path d="M41.1128 18H32.9903C32.5858 18 32.2579 18.3279 32.2579 18.7324V22.0995C32.2579 22.3884 32.4277 22.6503 32.6915 22.7682C32.9552 22.8861 33.2635 22.8379 33.4788 22.6452C33.6732 22.4712 33.9242 22.3807 34.1864 22.3913C34.704 22.4117 35.1247 22.8332 35.1442 23.3508C35.1547 23.6259 35.0557 23.8862 34.8655 24.0836C34.6752 24.2813 34.4194 24.3901 34.145 24.3901C33.899 24.3902 33.6623 24.2997 33.4788 24.1354C33.2636 23.9428 32.9552 23.8945 32.6914 24.0125C32.4277 24.1303 32.2578 24.3922 32.2578 24.6811V28.0098C32.2578 28.4143 32.5857 28.7422 32.9902 28.7422H35.181C35.1515 28.9126 35.14 29.0872 35.147 29.2638C35.1975 30.541 36.2376 31.5793 37.5149 31.6276C37.5471 31.6288 37.5792 31.6294 37.6113 31.6294C38.2521 31.6294 38.8554 31.3866 39.3191 30.9402C39.8062 30.4712 40.0745 29.8406 40.0745 29.1646C40.0745 29.0221 40.0622 28.8808 40.0381 28.7422H42.2677C42.6722 28.7422 43.0001 28.4143 43.0001 28.0098V19.8873C43.0001 18.8466 42.1535 18 41.1128 18ZM41.5352 27.2774H38.9006C38.6117 27.2774 38.3498 27.4471 38.2319 27.7109C38.114 27.9746 38.1622 28.2831 38.3549 28.4984C38.5192 28.6818 38.6097 28.9184 38.6097 29.1646C38.6097 29.4389 38.5008 29.6947 38.3032 29.8851C38.1057 30.0752 37.8464 30.1737 37.5703 30.1638C37.0527 30.1442 36.6312 29.7234 36.6107 29.2059C36.6004 28.9441 36.6906 28.6928 36.8646 28.4984C37.0573 28.2831 37.1055 27.9746 36.9876 27.7109C36.8697 27.4472 36.6077 27.2774 36.3189 27.2774H33.7227V25.8187C33.8612 25.8427 34.0024 25.855 34.1449 25.855C34.821 25.855 35.4518 25.5868 35.9208 25.0997C36.3896 24.6128 36.6337 23.9721 36.6081 23.2955C36.5598 22.0182 35.5215 20.9781 34.2442 20.9276C34.0675 20.9205 33.893 20.9323 33.7227 20.9617V19.4648H41.1128C41.3458 19.4648 41.5352 19.6543 41.5352 19.8873V27.2774Z" fill="#FF760E"/>
<path d="M37.2871 32.2578H33.92C33.6311 32.2578 33.3692 32.4276 33.2514 32.6914C33.1335 32.9551 33.1816 33.2636 33.3744 33.4788C33.5386 33.6623 33.6291 33.8989 33.6291 34.1451C33.6291 34.4194 33.5203 34.6752 33.3226 34.8655C33.1251 35.0556 32.8661 35.1539 32.5897 35.1442C32.0721 35.1247 31.6507 34.7039 31.6302 34.1864C31.6199 33.9246 31.7101 33.6732 31.8841 33.4788C32.0768 33.2636 32.1249 32.9551 32.0071 32.6914C31.8892 32.4277 31.6272 32.2578 31.3384 32.2578H28.7422V30.7995C28.9126 30.8289 29.0873 30.8406 29.2638 30.8336C30.541 30.7831 31.5793 29.7429 31.6276 28.4656C31.6531 27.7891 31.409 27.1483 30.9402 26.6614C30.4712 26.1743 29.8406 25.9061 29.1646 25.9061C29.0221 25.9061 28.8808 25.9184 28.7422 25.9425V23.7129C28.7422 23.3084 28.4143 22.9805 28.0098 22.9805H19.8873C18.8466 22.9805 18 23.8271 18 24.8677V41.1127C18 42.1534 18.8466 43 19.8873 43H36.1322C37.1729 43 38.0195 42.1534 38.0195 41.1127V32.9902C38.0195 32.5857 37.6916 32.2578 37.2871 32.2578ZM19.4648 24.8677C19.4648 24.6348 19.6543 24.4453 19.8873 24.4453H27.2774V27.08C27.2774 27.3689 27.4471 27.6308 27.7109 27.7486C27.9746 27.8666 28.2831 27.8184 28.4984 27.6256C28.6818 27.4614 28.9184 27.3709 29.1646 27.3709C29.4389 27.3709 29.6947 27.4797 29.8851 27.6774C30.0752 27.8749 30.1741 28.1351 30.1638 28.4103C30.1442 28.9279 29.7234 29.3493 29.2059 29.3698C28.9441 29.3801 28.6928 29.2899 28.4984 29.1159C28.2831 28.9233 27.9748 28.875 27.7109 28.9929C27.4472 29.1108 27.2774 29.3727 27.2774 29.6616V32.2578H25.8188C25.8428 32.1192 25.8551 31.978 25.8551 31.8354C25.8551 31.1594 25.5869 30.5288 25.0998 30.0598C24.6129 29.591 23.9717 29.3461 23.2956 29.3725C22.0183 29.4208 20.9781 30.4591 20.9276 31.7363C20.9207 31.9128 20.9323 32.0874 20.9617 32.2579H19.4648V24.8677ZM19.4648 41.1127V33.7226H22.0995C22.3884 33.7226 22.6503 33.5529 22.7682 33.2891C22.886 33.0254 22.8379 32.7169 22.6451 32.5016C22.4711 32.3073 22.3809 32.0559 22.3913 31.7941C22.4117 31.2766 22.8332 30.8558 23.3508 30.8363C23.6253 30.8269 23.8861 30.9248 24.0836 31.115C24.2813 31.3053 24.3901 31.5611 24.3901 31.8354C24.3901 32.0816 24.2997 32.3183 24.1354 32.5017C23.9428 32.7169 23.8946 33.0254 24.0125 33.2891C24.1303 33.5529 24.3923 33.7226 24.6812 33.7226H27.2774V35.1809C27.1069 35.1516 26.9323 35.1399 26.7558 35.1469C25.4786 35.1974 24.4402 36.2376 24.392 37.5149C24.3664 38.1914 24.6105 38.8321 25.0793 39.3191C25.5483 39.8061 26.1789 40.0744 26.8549 40.0744C26.9974 40.0744 27.1387 40.0621 27.2773 40.038V41.5351H19.8873C19.6543 41.5351 19.4648 41.3456 19.4648 41.1127ZM36.5547 41.1127C36.5547 41.3457 36.3652 41.5351 36.1323 41.5351H28.7422V38.9005C28.7422 38.6116 28.5724 38.3497 28.3086 38.2319C28.0449 38.1139 27.7364 38.1621 27.5212 38.3549C27.3377 38.5191 27.1011 38.6096 26.8549 38.6096C26.5806 38.6096 26.3248 38.5007 26.1345 38.3031C25.9444 38.1056 25.8454 37.8454 25.8558 37.5702C25.8753 37.0526 26.2961 36.6311 26.8136 36.6107C27.0748 36.6004 27.3267 36.6905 27.5212 36.8646C27.7364 37.0572 28.0448 37.1055 28.3086 36.9876C28.5723 36.8696 28.7421 36.6078 28.7421 36.3189V33.7226H30.2004C30.1711 33.893 30.1594 34.0676 30.1664 34.2442C30.2169 35.5214 31.257 36.5598 32.5344 36.608C33.2106 36.6343 33.8516 36.3895 34.3385 35.9207C34.8256 35.4517 35.0939 34.8211 35.0939 34.1451C35.0939 34.0026 35.0816 33.8613 35.0575 33.7227H36.5547V41.1127Z" fill="#FF760E"/>
</g>
<defs>
<clipPath id="clip0_239_34">
<rect width="25" height="25" fill="white" transform="translate(18 18)"/>
</clipPath>
</defs>
</svg>
