<svg fill="none" height="35" viewBox="0 0 39 35" width="39" xmlns="http://www.w3.org/2000/svg"><path d="m38.4157 34.3h-14.4136c-1.4082-5.1333-2.1124-10.4533-2.1124-15.96 0-5.6 1.284-10.03334 3.8519-13.30001 2.6508-3.35999 6.5442-5.03999 11.68-5.03999v7.84c-4.1418 0-6.2127 2.8467-6.2127 8.54v2.66h7.2068zm-20.9991 0h-14.41364c-1.40822-5.1333-2.112335-10.4533-2.112335-15.96 0-5.6 1.283965-10.03334 3.851905-13.30001 2.65078-3.35999 6.54407-5.03999 11.67997-5.03999v7.84c-4.1418 0-6.2127 2.8467-6.2127 8.54v2.66h7.2068z" fill="#579c3e"/></svg>