<svg fill="none" height="55" viewBox="0 0 55 55" width="55" xmlns="http://www.w3.org/2000/svg" xmlns:xlink="http://www.w3.org/1999/xlink"><clipPath id="a"><path d="m15 15h25v25h-25z"/></clipPath><rect fill="#fff4eb" height="54" rx="5.5" stroke="#ffa561" width="54" x=".5" y=".5"/><g clip-path="url(#a)" fill="#ff760e"><path d="m38.1128 15h-8.1225c-.4045 0-.7324.3279-.7324.7324v3.3671c0 .2889.1698.5508.4336.6687.2637.1179.572.0697.7873-.123.1944-.174.4454-.2645.7076-.2539.5176.0204.9383.4419.9578.9595.0105.2751-.0885.5354-.2787.7328-.1903.1977-.4461.3065-.7205.3065-.246.0001-.4827-.0904-.6662-.2547-.2152-.1926-.5236-.2409-.7874-.1229-.2637.1178-.4336.3797-.4336.6686v3.3287c0 .4045.3279.7324.7324.7324h2.1908c-.0295.1704-.041.345-.034.5216.0505 1.2772 1.0906 2.3155 2.3679 2.3638.0322.0012.0643.0018.0964.0018.6408 0 1.2441-.2428 1.7078-.6892.4871-.469.7554-1.0996.7554-1.7756 0-.1425-.0123-.2838-.0364-.4224h2.2296c.4045 0 .7324-.3279.7324-.7324v-8.1225c0-1.0407-.8466-1.8873-1.8873-1.8873zm.4224 9.2774h-2.6346c-.2889 0-.5508.1697-.6687.4335-.1179.2637-.0697.5722.123.7875.1643.1834.2548.42.2548.6662 0 .2743-.1089.5301-.3065.7205-.1975.1901-.4568.2886-.7329.2787-.5176-.0196-.9391-.4404-.9596-.9579-.0103-.2618.0799-.5131.2539-.7075.1927-.2153.2409-.5238.123-.7875s-.3799-.4335-.6687-.4335h-2.5962v-1.4587c.1385.024.2797.0363.4222.0363.6761 0 1.3069-.2682 1.7759-.7553.4688-.4869.7129-1.1276.6873-1.8042-.0483-1.2773-1.0866-2.3174-2.3639-2.3679-.1767-.0071-.3512.0047-.5215.0341v-1.4969h7.3901c.233 0 .4224.1895.4224.4225z"/><path d="m34.2871 29.2578h-3.3671c-.2889 0-.5508.1698-.6686.4336-.1179.2637-.0698.5722.123.7874.1642.1835.2547.4201.2547.6663 0 .2743-.1088.5301-.3065.7204-.1975.1901-.4565.2884-.7329.2787-.5176-.0195-.939-.4403-.9595-.9578-.0103-.2618.0799-.5132.2539-.7076.1927-.2152.2408-.5237.123-.7874-.1179-.2637-.3799-.4336-.6687-.4336h-2.5962v-1.4583c.1704.0294.3451.0411.5216.0341 1.2772-.0505 2.3155-1.0907 2.3638-2.368.0255-.6765-.2186-1.3173-.6874-1.8042-.469-.4871-1.0996-.7553-1.7756-.7553-.1425 0-.2838.0123-.4224.0364v-2.2296c0-.4045-.3279-.7324-.7324-.7324h-8.1225c-1.0407 0-1.8873.8466-1.8873 1.8872v16.245c0 1.0407.8466 1.8873 1.8873 1.8873h16.2449c1.0407 0 1.8873-.8466 1.8873-1.8873v-8.1225c0-.4045-.3279-.7324-.7324-.7324zm-17.8223-7.3901c0-.2329.1895-.4224.4225-.4224h7.3901v2.6347c0 .2889.1697.5508.4335.6686.2637.118.5722.0698.7875-.123.1834-.1642.42-.2547.6662-.2547.2743 0 .5301.1088.7205.3065.1901.1975.289.4577.2787.7329-.0196.5176-.4404.939-.9579.9595-.2618.0103-.5131-.0799-.7075-.2539-.2153-.1926-.5236-.2409-.7875-.123-.2637.1179-.4335.3798-.4335.6687v2.5962h-1.4586c.024-.1386.0363-.2798.0363-.4224 0-.676-.2682-1.3066-.7553-1.7756-.4869-.4688-1.1281-.7137-1.8042-.6873-1.2773.0483-2.3175 1.0866-2.368 2.3638-.0069.1765.0047.3511.0341.5216h-1.4969zm0 16.245v-7.3901h2.6347c.2889 0 .5508-.1697.6687-.4335.1178-.2637.0697-.5722-.1231-.7875-.174-.1943-.2642-.4457-.2538-.7075.0204-.5175.4419-.9383.9595-.9578.2745-.0094.5353.0885.7328.2787.1977.1903.3065.4461.3065.7204 0 .2462-.0904.4829-.2547.6663-.1926.2152-.2408.5237-.1229.7874.1178.2638.3798.4335.6687.4335h2.5962v1.4583c-.1705-.0293-.3451-.041-.5216-.034-1.2772.0505-2.3156 1.0907-2.3638 2.368-.0256.6765.2185 1.3172.6873 1.8042.469.487 1.0996.7553 1.7756.7553.1425 0 .2838-.0123.4224-.0364v1.4971h-7.39c-.233 0-.4225-.1895-.4225-.4224zm17.0899 0c0 .233-.1895.4224-.4224.4224h-7.3901v-2.6346c0-.2889-.1698-.5508-.4336-.6686-.2637-.118-.5722-.0698-.7874.123-.1835.1642-.4201.2547-.6663.2547-.2743 0-.5301-.1089-.7204-.3065-.1901-.1975-.2891-.4577-.2787-.7329.0195-.5176.4403-.9391.9578-.9595.2612-.0103.5131.0798.7076.2539.2152.1926.5236.2409.7874.123.2637-.118.4335-.3798.4335-.6687v-2.5963h1.4583c-.0293.1704-.041.345-.034.5216.0505 1.2772 1.0906 2.3156 2.368 2.3638.6762.0263 1.3172-.2185 1.8041-.6873.4871-.469.7554-1.0996.7554-1.7756 0-.1425-.0123-.2838-.0364-.4224h1.4972z"/></g></svg>