<svg fill="none" height="55" viewBox="0 0 55 55" width="55" xmlns="http://www.w3.org/2000/svg" xmlns:xlink="http://www.w3.org/1999/xlink"><clipPath id="a"><path d="m15 15h25v25h-25z"/></clipPath><rect fill="#fff3f9" height="54" rx="5.5" stroke="#fbbbda" width="54" x=".5" y=".5"/><g clip-path="url(#a)" fill="#ff0e82"><path d="m29.8301 23.438c-.2113-.1219-.4696-.1313-.6892-.0254-.2197.106-.3722.3137-.4072.5544l-.3991 2.7518h-1.6678l-.3992-2.7518c-.0349-.2407-.1874-.4484-.4071-.5544-.2197-.1059-.4779-.0965-.6893.0254-1.4357.8284-2.3274 2.3662-2.3274 4.0133 0 1.6274.8342 3.0983 2.2059 3.9404v7.8761c0 .4046.3292.7324.7352.7324h3.4315c.4061 0 .7353-.3278.7353-.7324v-7.8761c1.3716-.8421 2.2059-2.313 2.2059-3.9404 0-1.6471-.8918-3.1849-2.3275-4.0133zm-.9362 6.8636c-.2526.1228-.4128.3783-.4128.6582v7.5756h-1.9609v-7.5756c0-.2799-.1602-.5354-.4127-.6582-1.106-.5378-1.7931-1.63-1.7931-2.8503 0-.7208.2501-1.4111.6879-1.9636l.3 2.0682c.0523.3604.3622.6278.7278.6278h2.9411c.3656 0 .6755-.2674.7279-.6278l.3-2.0682c.4378.5525.6879 1.2428.6879 1.9636 0 1.2203-.6872 2.3125-1.7931 2.8503z"/><path d="m39.4093 24.78-1.8299-.3645c-.2014-.6647-.4681-1.3065-.7968-1.9169l1.035-1.5463c.1944-.2906.156-.6774-.0919-.9242l-2.773-2.7622c-.2479-.2469-.6362-.2852-.9279-.0916l-1.5525 1.0309c-.6127-.3273-1.257-.593-1.9243-.7936l-.366-1.8228c-.0686-.3424-.3704-.5888-.721-.5888h-3.9216c-.3505 0-.6523.2464-.721.5888l-.366 1.8228c-.6673.2006-1.3117.4663-1.9244.7936l-1.5525-1.0309c-.2916-.1936-.68-.1553-.9278.0916l-2.773 2.7622c-.2479.2468-.2863.6337-.0919.9242l1.035 1.5463c-.3287.6104-.5954 1.2522-.7968 1.9169l-1.8299.3645c-.3437.0684-.5911.3691-.5911.7182v3.9063c0 .3492.2474.6498.5911.7182l1.8299.3646c.2014.6647.4682 1.3065.7969 1.9168l-1.035 1.5464c-.1945.2905-.156.6773.0918.9242l2.773 2.7622c.2479.2469.6362.2852.9278.0915l1.9286-1.2806c.2046-.1358.3275-.3645.3275-.6094v-3.7177c0-.1863-.0713-.3657-.1993-.5016-1.0703-1.1346-1.6596-2.6147-1.6596-4.1677 0-3.3655 2.7488-6.1036 6.1275-6.1036 3.3788 0 6.1275 2.7381 6.1275 6.1036 0 1.553-.5893 3.0331-1.6595 4.1677-.128.1358-.1994.3152-.1994.5016v3.7177c0 .2449.1229.4736.3275.6094l1.9286 1.2806c.1245.0826.2664.1231.4076.1231.1898 0 .3781-.073.5202-.2145l2.773-2.7622c.2478-.2469.2863-.6337.0919-.9243l-1.035-1.5464c.3287-.6103.5954-1.2521.7968-1.9168l1.8299-.3645c.3437-.0685.5911-.3691.5911-.7183v-3.9063c0-.3491-.2474-.6498-.5911-.7182zm-.8795 4.0241-1.6819.335c-.2777.0554-.4988.2647-.5686.5381-.2141.8401-.5475 1.6421-.991 2.3837-.145.2425-.1373.5464.0199.7811l.9513 1.4215-1.9205 1.913-1.0996-.7302v-3.0439c1.201-1.3761 1.859-3.1227 1.859-4.951 0-4.1733-3.4085-7.5685-7.5982-7.5685s-7.5982 3.3952-7.5982 7.5685c0 1.8283.658 3.5749 1.8589 4.951v3.0439l-1.0996.7302-1.9205-1.913.9514-1.4215c.1571-.2347.1649-.5386.0199-.7811-.4435-.7416-.777-1.5436-.9911-2.3837-.0697-.2734-.2908-.4827-.5685-.5381l-1.6819-.335v-2.7053l1.682-.3351c.2777-.0553.4988-.2646.5685-.5381.2141-.8402.5475-1.6422.991-2.3838.145-.2424.1373-.5463-.0199-.7811l-.9513-1.4214 1.9205-1.9131 1.4271.9477c.2357.1565.5407.1642.7841.0198.7445-.4417 1.5497-.7739 2.3932-.9872.2745-.0694.4846-.2896.5401-.5663l.3363-1.6753h2.716l.3363 1.6753c.0556.2767.2657.4969.5402.5663.8435.2133 1.6487.5455 2.3932.9872.2434.1444.5484.1366.7841-.0198l1.4271-.9477 1.9205 1.9131-.9514 1.4214c-.1571.2348-.1648.5387-.0198.7811.4434.7416.7769 1.5437.991 2.3838.0697.2735.2908.4827.5685.5381l1.6819.335z"/></g></svg>