<svg fill="none" height="56" viewBox="0 0 55 56" width="55" xmlns="http://www.w3.org/2000/svg" xmlns:xlink="http://www.w3.org/1999/xlink"><clipPath id="a"><path d="m15 26.2324c0-5.5228 4.4772-10 10-10h13.3586v25h-23.3586z"/></clipPath><rect fill="#def1fc" height="54" rx="5.5" stroke="#88b8e6" width="54" x=".5" y=".678711"/><g clip-path="url(#a)"><path d="m38.3477 38.0352c-.0645-.7818-.4097-1.4899-.9713-1.9932-.5773-.5191-5.3265-4.7882-5.9019-5.3056.8355-1.4502 1.3184-3.157 1.3184-4.9824 0-.8058-.0943-1.5883-.2713-2.3361l1.4397-1.5408c.2681.1375.5681.2148.8846.2148 1.132 0 2.053-.9857 2.053-2.1974 0-1.2116-.9209-2.1972-2.0529-2.1972-1.1321 0-2.0531.9857-2.0531 2.1973 0 .3388.0722.6598.2006.9467l-.9708 1.0391c-1.3892-3.3251-4.5089-5.648-8.1262-5.648-4.9056 0-8.8965 4.2714-8.8965 9.5216 0 5.2503 3.9909 9.5217 8.8965 9.5217 1.7055 0 3.3002-.5168 4.6554-1.411.4834.616 4.4739 5.7012 4.9594 6.3199.1051.1322.2222.2574.3388.3619.4988.4471 1.1153.686 1.7582.686.0817 0 .164-.0038.2464-.0117.7305-.069 1.3921-.4385 1.8629-1.0402.4709-.6017.6946-1.3636.6301-2.1454zm-3.5017-18.873c.3773 0 .6843.3285.6843.7324 0 .4038-.307.7324-.6843.7324-.3774 0-.6844-.3286-.6844-.7324 0-.4039.3069-.7324.6844-.7324zm-10.9495 14.6583c-4.1509 0-7.537-3.6142-7.537-8.0566 0-4.4426 3.3861-8.0764 7.537-8.0764 3.2489 0 6.0236 2.2242 7.076 5.3169l-2.0855 2.232c-.2679-.1376-.5679-.2148-.8845-.2148s-.6165.0772-.8846.2148l-1.369-1.4654c.1284-.2868.2006-.6079.2006-.9467 0-1.2116-.921-2.1973-2.053-2.1973-1.1321 0-2.0531.9857-2.0531 2.1973 0 .3388.0721.6599.2006.9467l-1.369 1.4654c-.2681-.1376-.568-.2148-.8846-.2148-1.132 0-2.0531.9856-2.0531 2.1973 0 1.2116.921 2.1973 2.0531 2.1973 1.132 0 2.053-.9857 2.053-2.1973 0-.3388-.0721-.6599-.2006-.9467l1.369-1.4653c.2681.1375.5681.2147.8847.2147.3165 0 .6165-.0772.8845-.2147l1.3691 1.4653c-.1285.2868-.2007.6079-.2007.9467 0 1.2116.921 2.1973 2.0531 2.1973 1.132 0 2.053-.9857 2.053-2.1973 0-.3388-.0721-.6599-.2006-.9467l1.5004-1.6059c.0451.3559.0689.7189.0689 1.0877.0001 4.4425-3.3769 8.0665-7.5277 8.0665zm4.7904-6.6016c0 .4039-.307.7325-.6843.7325-.3774 0-.6844-.3286-.6844-.7325s.307-.7325.6844-.7325c.3773 0 .6843.3286.6843.7325zm-4.1061-4.3946c0 .4039-.307.7324-.6843.7324-.3774 0-.6844-.3285-.6844-.7324 0-.4038.307-.7324.6844-.7324.3773 0 .6843.3286.6843.7324zm-4.1061 4.3946c0 .4039-.307.7325-.6843.7325-.3774 0-.6844-.3286-.6844-.7325s.307-.7325.6844-.7325c.3773 0 .6843.3286.6843.7325zm10.0654 6.9018-.8792-1.1204c.3613-.3298.6979-.6899 1.006-1.0767l1.0468.9411c-.3592.4517-.7514.8716-1.1736 1.256zm6.1282 5.1193c-.236.3017-.5678.487-.9341.5216-.3665.0346-.7233-.0855-1.0053-.3383-.0567-.0508-.1203-.1191-.1719-.1841l-3.1361-3.9962c.4828-.4391.9313-.9191 1.3415-1.4358l3.7345 3.3571c.2819.2527.455.6078.4873.9997.0325.3922-.0797.7742-.3159 1.076z" fill="#0ea8ff"/></g></svg>