<svg width="360" height="90" viewBox="0 0 360 90" fill="none" xmlns="http://www.w3.org/2000/svg">
<path d="M277.973 16.3495C274.228 12.6101 274.228 6.55075 277.973 2.80231C281.718 -0.946137 287.796 -0.937039 291.541 2.80231C295.286 6.54165 295.286 12.601 291.541 16.3495C287.796 20.0979 281.718 20.0888 277.973 16.3495Z" fill="#FF4CA5"/>
<path d="M343.626 16.3495C339.881 12.6101 339.881 6.55075 343.626 2.80231C347.371 -0.946137 353.449 -0.937039 357.194 2.80231C360.939 6.54165 360.939 12.601 357.194 16.3495C353.449 20.0979 347.371 20.0888 343.626 16.3495Z" fill="#FF4CA5"/>
<path d="M277.973 81.9017C274.228 78.1624 274.228 72.103 277.973 68.3546C281.718 64.6061 287.796 64.6152 291.541 68.3546C295.286 72.0939 295.286 78.1533 291.541 81.9017C287.796 85.6502 281.718 85.6411 277.973 81.9017Z" fill="#FF4CA5"/>
<path d="M343.626 81.9017C339.881 78.1624 339.881 72.103 343.626 68.3546C347.371 64.6061 353.449 64.6152 357.194 68.3546C360.939 72.0939 360.939 78.1533 357.194 81.9017C353.449 85.6502 347.371 85.6411 343.626 81.9017Z" fill="#FF4CA5"/>
<path d="M249.389 23.6373L221.806 60.3575H218.663L191.682 23.519V85.0044H175.708V0.446045H194.096L220.594 36.8023L247.092 0.446045H265.353V85.0044H249.389V23.6373Z" fill="#062464"/>
<path d="M15.9461 15.4034V42.425H40.2298C50.3807 42.425 54.7271 35.6741 54.7271 28.9142C54.7271 22.1543 50.2531 15.4034 40.2298 15.4034H15.9461V15.4034ZM74.9013 85.0044H55.9299L31.2818 56.7819H15.9461V85.0044H0V0.446045C13.413 0.446045 26.8168 0.564321 40.2298 0.564321C60.1671 0.682597 70.6733 13.9568 70.6733 28.5503C70.6733 40.1322 65.3609 51.8325 49.2872 55.0896L74.9013 83.9217V85.0044Z" fill="#062464"/>
<path d="M145.092 58.1374L135.232 48.3477L124.28 59.2837L134.103 69.037C130.613 70.7929 126.494 71.8119 121.747 71.8119C103.85 71.8119 94.9024 57.3549 94.6655 43.8351C94.4286 29.9604 102.32 14.448 121.747 14.448C141.174 14.448 148.117 28.7867 148.709 42.0791C148.937 47.538 147.725 53.2244 145.092 58.1465M156.363 69.3554C161.667 61.713 164.136 51.9597 164.018 42.5522C163.662 21.3899 150.714 0.464111 121.747 0.464111C92.7793 0.464111 79.2388 21.9813 79.3572 43.4893C79.4757 64.8882 92.4239 86.1597 121.747 86.1597C131.05 86.1597 138.941 84.0398 145.174 80.0458L155.179 89.9173L166.132 78.9813L156.354 69.3372L156.363 69.3554Z" fill="#062464"/>
<path d="M360 35.0097H324.928V0H310.221V35.0097H275.157V49.6942H310.221V84.7039H324.928V49.6942H360V35.0097Z" fill="#062464"/>
</svg>
