<svg width="50" height="50" viewBox="0 0 50 50" fill="none" xmlns="http://www.w3.org/2000/svg">
<rect x="0.5" y="0.5" width="49" height="49" rx="5.5" fill="#EDFFF4" stroke="#C6EDB3"/>
<g clip-path="url(#clip0_47_1125)">
<path d="M14.9281 22.1238C14.3495 22.1224 13.7842 21.9461 13.3038 21.6172C12.8233 21.2882 12.4492 20.8213 12.2287 20.2756C12.0082 19.7298 11.9512 19.1296 12.0649 18.5508C12.1786 17.972 12.4579 17.4405 12.8675 17.0236C13.2771 16.6066 13.7987 16.3229 14.3663 16.2082C14.9339 16.0936 15.5221 16.1531 16.0565 16.3793C16.591 16.6056 17.0477 16.9883 17.3691 17.4792C17.6904 17.9702 17.8619 18.5472 17.8619 19.1376C17.8619 19.5303 17.786 19.9192 17.6384 20.2819C17.4909 20.6447 17.2747 20.9742 17.0022 21.2516C16.7297 21.529 16.4062 21.7488 16.0503 21.8985C15.6944 22.0481 15.313 22.1247 14.9281 22.1238ZM14.9281 17.5307C14.6169 17.532 14.313 17.6274 14.0549 17.8048C13.7968 17.9822 13.5959 18.2337 13.4778 18.5274C13.3596 18.8211 13.3294 19.144 13.3909 19.4553C13.4524 19.7665 13.603 20.0522 13.8235 20.2762C14.0441 20.5003 14.3247 20.6526 14.6301 20.7141C14.9354 20.7755 15.2517 20.7433 15.5392 20.6215C15.8266 20.4997 16.0722 20.2937 16.2449 20.0296C16.4177 19.7655 16.5099 19.4551 16.5099 19.1376C16.5099 18.926 16.469 18.7164 16.3894 18.521C16.3098 18.3256 16.1932 18.1482 16.0462 17.9989C15.8992 17.8496 15.7248 17.7314 15.5329 17.651C15.341 17.5707 15.1355 17.5298 14.9281 17.5307Z" fill="#39DF7B"/>
<path d="M35.2054 22.1238C34.6268 22.1224 34.0616 21.9461 33.5811 21.6172C33.1007 21.2882 32.7265 20.8213 32.506 20.2756C32.2856 19.7298 32.2285 19.1296 32.3422 18.5508C32.4559 17.972 32.7352 17.4405 33.1449 17.0236C33.5545 16.6066 34.0761 16.3229 34.6436 16.2082C35.2113 16.0936 35.7994 16.1531 36.3339 16.3793C36.8684 16.6056 37.3251 16.9883 37.6464 17.4792C37.9677 17.9702 38.1392 18.5472 38.1392 19.1376C38.1392 19.5303 38.0633 19.9192 37.9158 20.2819C37.7683 20.6447 37.5521 20.9742 37.2796 21.2516C37.007 21.529 36.6836 21.7488 36.3277 21.8985C35.9717 22.0481 35.5904 22.1247 35.2054 22.1238ZM35.2054 17.5307C34.8942 17.532 34.5904 17.6274 34.3323 17.8048C34.0741 17.9822 33.8733 18.2337 33.7551 18.5274C33.6369 18.8211 33.6067 19.144 33.6682 19.4553C33.7298 19.7665 33.8803 20.0522 34.1009 20.2762C34.3214 20.5003 34.6021 20.6526 34.9074 20.7141C35.2127 20.7755 35.5291 20.7433 35.8165 20.6215C36.1039 20.4997 36.3495 20.2937 36.5223 20.0296C36.6951 19.7655 36.7873 19.4551 36.7873 19.1376C36.7873 18.926 36.7463 18.7164 36.6667 18.521C36.5872 18.3256 36.4706 18.1482 36.3235 17.9989C36.1766 17.8496 36.0022 17.7314 35.8103 17.651C35.6184 17.5707 35.4128 17.5298 35.2054 17.5307Z" fill="#39DF7B"/>
<path d="M32.9563 19.8276H28.4475C28.2682 19.8276 28.0962 19.7549 27.9695 19.6256C27.8427 19.4962 27.7715 19.3208 27.7715 19.1379C27.7715 18.955 27.8427 18.7796 27.9695 18.6502C28.0962 18.5209 28.2682 18.4482 28.4475 18.4482H32.9563C33.1356 18.4482 33.3076 18.5209 33.4343 18.6502C33.5611 18.7796 33.6323 18.955 33.6323 19.1379C33.6323 19.3208 33.5611 19.4962 33.4343 19.6256C33.3076 19.7549 33.1356 19.8276 32.9563 19.8276Z" fill="#39DF7B"/>
<path d="M21.6859 19.8276H17.1838C17.0045 19.8276 16.8326 19.7549 16.7058 19.6256C16.579 19.4962 16.5078 19.3208 16.5078 19.1379C16.5078 18.955 16.579 18.7796 16.7058 18.6502C16.8326 18.5209 17.0045 18.4482 17.1838 18.4482H21.6859C21.8652 18.4482 22.0372 18.5209 22.1639 18.6502C22.2907 18.7796 22.3619 18.955 22.3619 19.1379C22.3619 19.3208 22.2907 19.4962 22.1639 19.6256C22.0372 19.7549 21.8652 19.8276 21.6859 19.8276Z" fill="#39DF7B"/>
<path d="M18.3065 34.7721H16.0554C15.7447 34.7721 15.4371 34.7097 15.15 34.5884C14.863 34.4671 14.6021 34.2893 14.3824 34.0652C14.1627 33.841 13.9885 33.5749 13.8696 33.2821C13.7507 32.9892 13.6895 32.6753 13.6895 32.3584V30.0549C13.6895 29.4147 13.9387 28.8008 14.3824 28.3481C14.8261 27.8954 15.4279 27.6411 16.0554 27.6411H18.3065C18.934 27.6411 19.5358 27.8954 19.9795 28.3481C20.4232 28.8008 20.6724 29.4147 20.6724 30.0549V32.3584C20.6755 32.8253 20.5429 33.2828 20.2914 33.6731C20.04 34.0634 19.681 34.369 19.2596 34.5515C18.9626 34.6982 18.6365 34.7737 18.3065 34.7721ZM16.0554 29.0204C15.7865 29.0204 15.5286 29.1294 15.3384 29.3234C15.1483 29.5174 15.0414 29.7806 15.0414 30.0549V32.3584C15.0414 32.4942 15.0677 32.6287 15.1186 32.7542C15.1696 32.8797 15.2443 32.9937 15.3384 33.0898C15.4326 33.1859 15.5444 33.2621 15.6674 33.3141C15.7904 33.3661 15.9223 33.3928 16.0554 33.3928H18.3065C18.4449 33.3919 18.5813 33.3589 18.7053 33.2963C18.8863 33.2182 19.0411 33.0878 19.1504 32.9212C19.2597 32.7545 19.3188 32.5588 19.3205 32.3584V30.0549C19.3205 29.7806 19.2136 29.5174 19.0235 29.3234C18.8333 29.1294 18.5754 29.0204 18.3065 29.0204H16.0554Z" fill="#39DF7B"/>
<path d="M34.0848 34.7721H31.827C31.4899 34.7716 31.1572 34.6938 30.8535 34.5446C30.437 34.3594 30.083 34.0535 29.8354 33.6648C29.5878 33.2761 29.4576 32.8219 29.461 32.3584V30.0549C29.461 29.4147 29.7102 28.8008 30.154 28.3481C30.5977 27.8954 31.1994 27.6411 31.827 27.6411H34.0848C34.7122 27.6411 35.3141 27.8954 35.7578 28.3481C36.2014 28.8008 36.4507 29.4147 36.4507 30.0549V32.3584C36.4507 32.6753 36.3896 32.9892 36.2707 33.2821C36.1518 33.5749 35.9775 33.841 35.7578 34.0652C35.5381 34.2893 35.2772 34.4671 34.9902 34.5884C34.7031 34.7097 34.3955 34.7721 34.0848 34.7721ZM31.827 29.0204C31.5586 29.0222 31.3017 29.1318 31.1119 29.3254C30.9222 29.519 30.8147 29.7811 30.813 30.0549V32.3584C30.813 32.5548 30.8693 32.747 30.9749 32.9112C31.0807 33.0754 31.2312 33.2044 31.4079 33.2825C31.5372 33.352 31.6808 33.3898 31.827 33.3928H34.0848C34.3531 33.391 34.61 33.2815 34.7998 33.0878C34.9896 32.8942 35.097 32.6321 35.0988 32.3584V30.0549C35.097 29.7811 34.9896 29.519 34.7998 29.3254C34.61 29.1318 34.3531 29.0222 34.0848 29.0204H31.827Z" fill="#39DF7B"/>
<path d="M26.7576 23.2759H23.3777C22.7502 23.2759 22.1484 23.0216 21.7047 22.5689C21.261 22.1162 21.0117 21.5022 21.0117 20.8621V17.4138C21.0117 16.7736 21.261 16.1597 21.7047 15.707C22.1484 15.2543 22.7502 15 23.3777 15H26.7576C27.3852 15 27.9869 15.2543 28.4306 15.707C28.8744 16.1597 29.1236 16.7736 29.1236 17.4138V20.8621C29.1236 21.5022 28.8744 22.1162 28.4306 22.5689C27.9869 23.0216 27.3852 23.2759 26.7576 23.2759ZM23.3777 16.3793C23.1099 16.3829 22.854 16.493 22.6646 16.6863C22.4752 16.8795 22.3672 17.1405 22.3637 17.4138V20.8621C22.3672 21.1353 22.4752 21.3964 22.6646 21.5896C22.854 21.7828 23.1099 21.893 23.3777 21.8966H26.7576C27.0255 21.893 27.2814 21.7828 27.4707 21.5896C27.6602 21.3964 27.7681 21.1353 27.7716 20.8621V17.4138C27.7681 17.1405 27.6602 16.8795 27.4707 16.6863C27.2814 16.493 27.0255 16.3829 26.7576 16.3793H23.3777Z" fill="#39DF7B"/>
<path d="M32.9557 29.021H32.8746C32.7862 29.0107 32.7006 28.9827 32.6229 28.9386C32.5451 28.8946 32.4766 28.8353 32.4214 28.7641C32.3661 28.693 32.3251 28.6115 32.3008 28.5242C32.2765 28.4369 32.2693 28.3456 32.2797 28.2555C32.2896 28.0901 32.2896 27.9242 32.2797 27.7589C32.2994 26.2925 31.924 24.8488 31.1945 23.5852C30.465 22.3216 29.4093 21.2867 28.1426 20.5934C27.9821 20.5101 27.8607 20.3653 27.8049 20.1907C27.7491 20.0161 27.7636 19.826 27.8452 19.6623C27.9268 19.4986 28.0687 19.3747 28.2399 19.3178C28.4111 19.2609 28.5973 19.2757 28.7578 19.3589C30.2457 20.1701 31.4869 21.3823 32.3463 22.8635C33.2057 24.3446 33.6503 26.0378 33.6317 27.7589C33.6317 27.9779 33.6181 28.1968 33.5911 28.4141C33.5722 28.5754 33.4982 28.7247 33.3819 28.8357C33.2656 28.9468 33.1147 29.0124 32.9557 29.021Z" fill="#39DF7B"/>
<path d="M17.2119 29.0208C17.0458 29.0221 16.8851 28.9609 16.7604 28.849C16.6357 28.737 16.5558 28.5822 16.5359 28.4139C16.5359 28.1932 16.5359 27.9794 16.5359 27.7588C16.5147 26.0406 16.9553 24.3492 17.8097 22.8683C18.6642 21.3875 19.8999 20.1737 21.3827 19.3588C21.4622 19.318 21.5488 19.2936 21.6375 19.287C21.7261 19.2804 21.8152 19.2916 21.8997 19.3201C21.9841 19.3486 22.0622 19.3938 22.1295 19.4531C22.1968 19.5124 22.252 19.5846 22.2919 19.6657C22.3319 19.7467 22.3558 19.835 22.3623 19.9255C22.3688 20.016 22.3578 20.1069 22.3299 20.193C22.3019 20.2792 22.2576 20.3588 22.1995 20.4275C22.1414 20.4962 22.0706 20.5525 21.9911 20.5933C20.7262 21.2881 19.6723 22.3236 18.9441 23.587C18.2159 24.8503 17.8412 26.2932 17.8608 27.7588C17.8509 27.9241 17.8509 28.09 17.8608 28.2553C17.8712 28.3454 17.864 28.4368 17.8397 28.5241C17.8154 28.6114 17.7744 28.693 17.7192 28.7641C17.6639 28.8352 17.5954 28.8945 17.5176 28.9386C17.4399 28.9826 17.3543 29.0106 17.266 29.0208H17.2119Z" fill="#39DF7B"/>
</g>
<defs>
<clipPath id="clip0_47_1125">
<rect width="26.3636" height="20" fill="white" transform="translate(12 15)"/>
</clipPath>
</defs>
</svg>
