<svg width="576" height="144" viewBox="0 0 576 144" fill="none" xmlns="http://www.w3.org/2000/svg">
<path d="M551.905 82.8209C553.735 84.6489 556.141 85.786 558.715 86.0385C561.289 86.2911 563.871 85.6434 566.021 84.2058C568.171 82.7682 569.756 80.6296 570.507 78.1544C571.257 75.6793 571.125 73.0206 570.135 70.6313C569.145 68.2421 567.357 66.2701 565.076 65.0512C562.795 63.8324 560.161 63.4422 557.625 63.947C555.088 64.4518 552.805 65.8205 551.164 67.8198C549.524 69.8192 548.627 72.3255 548.627 74.9119C548.625 76.3812 548.914 77.8363 549.476 79.1936C550.039 80.551 550.864 81.7837 551.905 82.8209Z" fill="#EC6602"/>
<path d="M533.143 101.583C534.551 102.992 536.404 103.87 538.387 104.066C540.369 104.262 542.359 103.764 544.016 102.658C545.672 101.552 546.894 99.9049 547.473 97.9986C548.051 96.0922 547.951 94.0442 547.189 92.2035C546.427 90.3629 545.05 88.8435 543.293 87.9044C541.536 86.9652 539.507 86.6645 537.554 87.0533C535.6 87.4421 533.841 88.4966 532.577 90.0368C531.314 91.5771 530.623 93.5078 530.624 95.5001C530.622 96.63 530.844 97.7491 531.276 98.7931C531.708 99.837 532.343 100.785 533.143 101.583Z" fill="#EC6602"/>
<path d="M533.165 60.4301C534.573 61.8392 536.426 62.7165 538.408 62.9124C540.391 63.1083 542.38 62.6107 544.036 61.5044C545.693 60.3982 546.914 58.7517 547.493 56.8456C548.071 54.9395 547.971 52.8917 547.209 51.0513C546.447 49.2109 545.07 47.6917 543.313 46.7527C541.557 45.8137 539.529 45.5129 537.575 45.9016C535.621 46.2904 533.863 47.3446 532.599 48.8846C531.336 50.4246 530.646 52.3551 530.646 54.3471C530.644 55.477 530.866 56.5961 531.298 57.64C531.731 58.6839 532.365 59.6321 533.165 60.4301Z" fill="#EC6602"/>
<path d="M513.959 120.767C515.042 121.85 516.467 122.524 517.991 122.675C519.515 122.825 521.044 122.442 522.318 121.592C523.592 120.741 524.531 119.475 524.976 118.009C525.421 116.544 525.343 114.969 524.757 113.554C524.171 112.139 523.113 110.971 521.762 110.249C520.411 109.527 518.852 109.295 517.35 109.594C515.848 109.893 514.495 110.703 513.524 111.887C512.552 113.071 512.021 114.555 512.021 116.087C512.02 116.956 512.191 117.817 512.523 118.62C512.856 119.423 513.344 120.153 513.959 120.767Z" fill="#EC6602"/>
<path d="M513.982 79.614C515.065 80.6962 516.489 81.3696 518.013 81.5194C519.536 81.6692 521.064 81.2861 522.337 80.4355C523.61 79.5848 524.548 78.3192 524.992 76.8542C525.437 75.3893 525.359 73.8156 524.773 72.4014C524.187 70.9872 523.129 69.8198 521.779 69.0983C520.429 68.3767 518.87 68.1456 517.369 68.4443C515.868 68.743 514.516 69.5531 513.545 70.7364C512.574 71.9197 512.043 73.4032 512.043 74.934C512.042 75.8033 512.213 76.6643 512.546 77.4674C512.878 78.2706 513.367 79.0001 513.982 79.614Z" fill="#EC6602"/>
<path d="M514.005 38.462C515.088 39.5452 516.513 40.2195 518.037 40.3699C519.561 40.5203 521.09 40.1375 522.364 39.2868C523.638 38.436 524.577 37.17 525.022 35.7043C525.467 34.2387 525.389 32.6642 524.803 31.2491C524.217 29.834 523.159 28.6659 521.808 27.9438C520.457 27.2217 518.898 26.9903 517.396 27.289C515.894 27.5878 514.541 28.3982 513.57 29.5821C512.598 30.7661 512.067 32.2503 512.067 33.782C512.066 34.6512 512.237 35.5122 512.569 36.3153C512.902 37.1184 513.39 37.848 514.005 38.462Z" fill="#EC6602"/>
<path d="M494.474 99.122C495.307 99.9546 496.402 100.473 497.574 100.588C498.746 100.704 499.922 100.409 500.901 99.7548C501.88 99.1006 502.602 98.1271 502.944 97.0003C503.286 95.8734 503.226 94.6629 502.776 93.575C502.325 92.487 501.511 91.589 500.473 91.0338C499.434 90.4786 498.235 90.3007 497.08 90.5303C495.925 90.76 494.886 91.383 494.139 92.2931C493.392 93.2033 492.983 94.3444 492.983 95.522C492.982 96.1907 493.113 96.8531 493.369 97.4709C493.625 98.0887 494 98.6499 494.474 99.122Z" fill="#EC6602"/>
<path d="M494.5 57.9699C495.333 58.8025 496.428 59.3206 497.6 59.436C498.772 59.5514 499.948 59.2569 500.927 58.6027C501.906 57.9485 502.628 56.975 502.97 55.8482C503.312 54.7213 503.252 53.5108 502.802 52.4229C502.351 51.3349 501.537 50.4369 500.499 49.8817C499.46 49.3265 498.261 49.1486 497.106 49.3782C495.951 49.6079 494.912 50.2309 494.165 51.141C493.418 52.0512 493.009 53.1923 493.009 54.3699C493.008 55.0386 493.139 55.7009 493.395 56.3187C493.651 56.9365 494.027 57.4977 494.5 57.9699Z" fill="#EC6602"/>
<path d="M474.74 77.7269C475.381 78.367 476.224 78.7651 477.125 78.8535C478.026 78.9419 478.93 78.7151 479.683 78.2117C480.436 77.7083 480.991 76.9594 481.254 76.0927C481.516 75.226 481.47 74.295 481.124 73.4583C480.777 72.6217 480.151 71.9311 479.352 71.5043C478.553 71.0775 477.631 70.9408 476.743 71.1175C475.855 71.2942 475.055 71.7735 474.481 72.4735C473.906 73.1736 473.592 74.0512 473.592 74.9569C473.591 75.4715 473.692 75.9812 473.889 76.4566C474.086 76.932 474.375 77.3637 474.74 77.7269Z" fill="#EC6602"/>
<path d="M145.576 54.6V44.936C150.284 46.5332 155.206 47.4098 160.176 47.536C166.018 47.536 168.939 45.993 168.939 42.907C168.948 42.3589 168.839 41.8153 168.618 41.3135C168.397 40.8117 168.07 40.3636 167.66 40C166.784 39.168 164.553 38.0163 160.966 36.545C154.532 33.8977 150.336 31.6407 148.377 29.774C147.131 28.5672 146.151 27.1142 145.498 25.5074C144.845 23.9007 144.534 22.1756 144.585 20.442C144.585 15.6113 146.428 11.9283 150.114 9.393C153.757 6.881 158.504 5.625 164.354 5.625C169.062 5.8021 173.745 6.39812 178.348 7.406V16.7C174.343 14.9995 170.05 14.0774 165.7 13.983C160.214 13.983 157.471 15.4923 157.471 18.511C157.479 19.0772 157.637 19.6311 157.928 20.1164C158.22 20.6016 158.636 21.0007 159.132 21.273C160.051 21.8463 162.585 23.067 166.732 24.935C172.7 27.5823 176.673 29.886 178.652 31.846C179.827 33.0276 180.747 34.4384 181.354 35.9906C181.961 37.5429 182.242 39.2035 182.18 40.869C182.258 43.3327 181.653 45.77 180.431 47.911C179.21 50.052 177.42 51.8133 175.259 53C171.529 55.2573 166.691 56.385 160.744 56.383C155.636 56.374 150.547 55.7767 145.576 54.603" fill="#009999"/>
<path d="M189.889 55.3881H203.551V6.4751H189.889V55.3881Z" fill="#009999"/>
<path d="M216.079 6.47705V55.39H251.681V46.044H229.246V34.437H248.284V26.3711H229.246V15.3271H251.118V6.47705H216.079Z" fill="#009999"/>
<path d="M303.239 6.47705L290.621 37.7281L278.316 6.47705H260.601V55.39H270.226V20.7601L284.293 55.885H292.767L307.113 20.7601V55.39H320.063V6.47705H303.239Z" fill="#009999"/>
<path d="M332.591 6.47705V55.39H368.198V46.044H345.758V34.437H364.8V26.3711H345.758V15.3271H367.63V6.47705H332.591Z" fill="#009999"/>
<path d="M409.819 6.47705V39.2201L393.024 6.47705H377.187V55.39H386.812V22.2081L404.059 55.39H419.444V6.47705H409.819Z" fill="#009999"/>
<path d="M429.143 54.6V44.936C433.849 46.5407 438.772 47.4175 443.743 47.536C449.586 47.536 452.508 45.993 452.507 42.907C452.518 42.3616 452.413 41.8201 452.198 41.3188C451.983 40.8175 451.663 40.3678 451.26 40C450.389 39.168 448.148 38.0163 444.537 36.545C438.122 33.917 433.926 31.66 431.948 29.774C430.695 28.5654 429.71 27.1075 429.055 25.4944C428.401 23.8813 428.092 22.1489 428.148 20.409C428.148 15.5963 429.991 11.9243 433.678 9.393C437.316 6.881 442.064 5.625 447.922 5.625C452.224 5.74407 456.505 6.27144 460.707 7.2L461.915 7.407V16.7C457.897 14.9964 453.592 14.074 449.229 13.982C443.767 13.982 441.037 15.4913 441.039 18.51C441.046 19.0751 441.202 19.6283 441.492 20.1134C441.781 20.5986 442.195 20.9983 442.689 21.272C443.565 21.8207 446.111 23.0413 450.327 24.934C456.251 27.5813 460.213 29.885 462.213 31.845C463.389 33.026 464.31 34.4368 464.917 35.9892C465.524 37.5415 465.804 39.2024 465.741 40.868C465.821 43.327 465.221 45.7604 464.008 47.9008C462.795 50.0411 461.015 51.8055 458.864 53C455.11 55.2573 450.261 56.385 444.316 56.383C439.207 56.3745 434.116 55.7772 429.143 54.603" fill="#009999"/>
<path d="M343.319 105.474C343.319 111.288 335.475 112.64 329.999 112.808C330.249 106.99 333.286 101.34 339.017 101.34C339.58 101.288 340.148 101.358 340.682 101.545C341.216 101.733 341.704 102.032 342.111 102.424C342.519 102.817 342.838 103.292 343.046 103.818C343.254 104.344 343.346 104.909 343.317 105.474M353.601 105.388C353.601 97.3799 348.12 93.0779 339.607 93.0779C325.781 93.0779 318.615 104.378 318.615 116.769C318.615 129.416 324.347 138.352 338.678 138.352C344.186 138.414 349.577 136.765 354.107 133.631L350.733 125.792C347.668 128.035 343.996 129.299 340.199 129.416C333.789 129.416 331.089 125.116 330.499 121.071C340.699 120.648 353.599 118.116 353.599 105.388" fill="#EC6602"/>
<path d="M384.207 105.474C384.207 111.288 376.363 112.64 370.887 112.808C371.137 106.99 374.174 101.34 379.905 101.34C380.468 101.288 381.036 101.358 381.57 101.545C382.104 101.733 382.592 102.032 382.999 102.424C383.407 102.817 383.726 103.292 383.934 103.818C384.142 104.344 384.234 104.909 384.205 105.474M394.49 105.388C394.49 97.3799 389.008 93.0779 380.49 93.0779C366.664 93.0779 359.499 104.378 359.499 116.769C359.499 129.416 365.23 138.352 379.561 138.352C385.072 138.416 390.467 136.766 395 133.631L391.626 125.792C388.561 128.036 384.889 129.299 381.092 129.416C374.682 129.416 371.987 125.116 371.392 121.071C381.592 120.648 394.492 118.116 394.492 105.388" fill="#EC6602"/>
<path d="M80.035 105.474C80.035 111.288 72.191 112.64 66.714 112.808C66.964 106.99 70.001 101.34 75.733 101.34C76.2964 101.288 76.8643 101.358 77.3982 101.545C77.9322 101.733 78.4196 102.032 78.8275 102.424C79.2353 102.817 79.554 103.292 79.7621 103.818C79.9701 104.344 80.0625 104.909 80.033 105.474M90.317 105.388C90.317 97.3799 84.836 93.0779 76.323 93.0779C62.497 93.0779 55.331 104.378 55.331 116.769C55.331 129.416 61.063 138.352 75.394 138.352C80.9015 138.414 86.2926 136.765 90.822 133.631L87.449 125.792C84.3837 128.036 80.711 129.299 76.914 129.416C70.504 129.416 67.805 125.116 67.214 121.071C77.414 120.648 90.314 118.116 90.314 105.388" fill="#EC6602"/>
<path d="M34.254 81.0239V103.363H17.055V81.0239H5V137.088H17.055V113.902H34.254V137.088H46.314V81.0239H34.254Z" fill="#EC6602"/>
<path d="M123.281 123.43C123.281 126.548 120.755 129.753 116.371 129.753C110.129 129.753 108.695 123.766 108.695 116.938C108.695 108.675 111.058 101.764 117.973 101.764C119.785 101.725 121.588 102.039 123.281 102.688V123.43ZM135.76 137.087L134.917 128.574V96.1999C129.942 94.3456 124.705 93.2918 119.4 93.0779C104.482 93.0779 97.061 102.778 97.061 117.611C97.061 128.993 101.19 138.266 113.414 138.266C117.971 138.266 122.182 136.582 124.714 132.703L125.138 132.79L125.725 137.09L135.76 137.087Z" fill="#EC6602"/>
<path d="M145.539 81.1069V124.356C145.539 131.44 146.213 138.35 158.354 138.35C162.093 138.361 165.774 137.435 169.062 135.655L166.53 127.811C164.915 128.574 163.173 129.033 161.391 129.164C158.267 129.164 157.257 127.306 157.257 122.672V81.1069H145.539Z" fill="#EC6602"/>
<path d="M218.631 137.087V109.517C218.597 108.555 218.757 107.595 219.102 106.696C219.447 105.797 219.97 104.977 220.639 104.284C221.308 103.592 222.11 103.042 222.997 102.666C223.884 102.291 224.837 102.098 225.8 102.1C230.27 102.1 231.194 105.469 231.194 109.853V137.086H242.912V108.086C242.912 98.0519 238.112 93.0759 229.255 93.0759C227.278 93.0364 225.315 93.4054 223.487 94.1598C221.659 94.9141 220.007 96.0376 218.634 97.4599V81.0229H206.913V137.087H218.631Z" fill="#EC6602"/>
<path d="M253.277 137.088H265V94.344H253.277V137.088Z" fill="#EC6602"/>
<path d="M252.739 80.9869C252.714 81.7907 252.854 82.5911 253.151 83.3386C253.447 84.0861 253.894 84.7648 254.463 85.3329C255.729 86.4791 257.394 87.0833 259.101 87.0159C260.807 87.0697 262.469 86.4673 263.744 85.3329C264.313 84.7704 264.764 84.1007 265.072 83.3627C265.38 82.6246 265.539 81.8327 265.539 81.0329C265.539 80.2332 265.38 79.4413 265.072 78.7032C264.764 77.9651 264.313 77.2955 263.744 76.7329C262.487 75.5581 260.821 74.9211 259.101 74.9579C257.391 74.9166 255.734 75.5549 254.494 76.7329C253.932 77.2886 253.487 77.9516 253.185 78.6825C252.884 79.4134 252.732 80.1963 252.739 80.9869Z" fill="#EC6602"/>
<path d="M287.086 137.087V109.687C287.046 108.701 287.206 107.718 287.557 106.796C287.909 105.874 288.443 105.033 289.129 104.324C289.815 103.615 290.637 103.052 291.547 102.67C292.456 102.288 293.434 102.095 294.42 102.102C298.891 102.102 299.647 105.557 299.647 110.192V137.092H311.365V107.915C311.365 97.7988 306.307 93.0778 297.965 93.0778C295.485 92.9918 293.022 93.5247 290.8 94.6284C288.577 95.7321 286.664 97.3719 285.234 99.3998L284.387 94.3418H274.608L275.368 102.268V137.085L287.086 137.087Z" fill="#EC6602"/>
<path d="M415.315 110.53C415.483 106.064 418.183 103.196 422.399 103.196C424.486 103.207 426.54 103.727 428.38 104.712L430.488 94.6001C428.309 93.5425 425.909 93.0229 423.488 93.0851C419.527 93.0851 415.398 95.4431 413.372 100.419L412.272 94.3451H402.748L403.591 101.766V137.089H415.309L415.315 110.53Z" fill="#EC6602"/>
<path d="M462.8 96.793L462.833 96.693C458.679 94.0408 453.793 92.7692 448.873 93.06C440.21 93.512 433.401 98.676 433.873 107.598C434.345 116.52 440.85 118.638 447.256 120.158C450.932 121.063 454.007 121.751 454.181 125.033C454.349 128.233 452.14 129.619 449.027 129.783C445.215 129.983 440.398 128.283 437.289 126.689L433.796 134.725C436.255 136.371 442.596 138.725 450.066 138.33C459.821 137.82 466.207 132.68 465.711 123.161C465.249 114.403 458.242 112.487 452.001 110.87C448.151 109.894 445.316 108.941 445.143 105.659C444.999 102.877 447.212 101.659 449.994 101.515C452.872 101.366 455.971 102.627 459.263 104.932L462.8 96.793Z" fill="#EC6602"/>
<path d="M186.174 103.533H197.218V94.341H186.174V81.021H174.456V94.346H167.956V103.538H174.456V124.356C174.456 131.44 175.13 138.35 187.271 138.35C191.01 138.361 194.691 137.435 197.979 135.655L195.447 127.811C193.83 128.575 192.086 129.034 190.303 129.164C187.185 129.164 186.174 127.306 186.174 122.672V103.533Z" fill="#EC6602"/>
</svg>
