<svg width="200" height="200" viewBox="0 0 200 200" fill="none" xmlns="http://www.w3.org/2000/svg">
<path d="M200 200H123.179C115.673 170.068 111.921 139.048 111.921 106.939C111.921 74.2857 118.764 48.4353 132.45 29.3877C146.578 9.7959 167.329 0 194.702 0V45.7143C172.627 45.7143 161.589 62.3129 161.589 95.5102V111.02H200V200ZM88.0795 200H11.2583C3.75276 170.068 0 139.048 0 106.939C0 74.2857 6.84327 48.4353 20.5298 29.3877C34.6578 9.7959 55.4084 0 82.7815 0V45.7143C60.7064 45.7143 49.6689 62.3129 49.6689 95.5102V111.02H88.0795V200Z" fill="#579C3E"/>
</svg>
